<svg xmlns="http://www.w3.org/2000/svg" viewBox="0 0 119.99 121.64"><defs><style>.cls-1{fill:currentColor;}.cls-2{fill:none;stroke:currentColor;stroke-miterlimit:10;stroke-width:4px;}</style></defs><g id="Livello_2" data-name="Livello 2"><g id="Livello_1-2" data-name="Livello 1"><path class="cls-1" d="M89.43,115.12a6.85,6.85,0,0,1-1.63,4.62,5,5,0,0,1-4,1.9H5.59a5,5,0,0,1-4-1.9A6.85,6.85,0,0,1,0,115.12V6.52A6.85,6.85,0,0,1,1.63,1.9a5,5,0,0,1,4-1.9H57.76a11.78,11.78,0,0,1,5.12,1.36,13.47,13.47,0,0,1,4.43,3.26L85.47,25.79A16.39,16.39,0,0,1,88.27,31a18.1,18.1,0,0,1,1.16,6V47.86L82,54.92V43.44H57.76a5,5,0,0,1-4-1.9,6.8,6.8,0,0,1-1.63-4.61V8.69H7.45V113H82V94l7.45-7.24ZM59.62,9.23V34.75H81.51A7.78,7.78,0,0,0,80.23,32L62,10.73A6.07,6.07,0,0,0,59.62,9.23Z"/><path class="cls-1" d="M92.78,47.16l16.57,16.58L76.2,96.9H59.62V80.32ZM120,51a4.91,4.91,0,0,1-1.47,3.59l-6.62,6.61L95.33,44.61,101.94,38a4.74,4.74,0,0,1,3.59-1.52A4.93,4.93,0,0,1,109.15,38l9.37,9.32A5.13,5.13,0,0,1,120,51Z"/><path class="cls-2" d="M16.59,95.19s8.6,1.44,10.76,0c4-2.68,5-14.88,8.27-16.37s4.14,16.37,7.44,16.37,4.14-8.27,9.1-8.23,1.66,8.23,8.27,8.23"/></g></g></svg>
