<!-- <svg id="logo-engage-neg" xmlns="http://www.w3.org/2000/svg" width="266.47" height="91.327" viewBox="0 0 266.47 91.327">
  <g id="tenaglia">
    <path id="Tracciato_1" data-name="Tracciato 1" d="M-48.731-21.5A24.346,24.346,0,0,0-66.883-10.609l-25.6,32.865A23.442,23.442,0,0,0-96.5,33.721h25.6L-48.731,5.059c.191-.191.191-26.559,0-26.559" transform="translate(96.691 21.5)" fill="#fff"/>
    <path id="Tracciato_2" data-name="Tracciato 2" d="M-95.836,14.623A21.017,21.017,0,0,1-96.6,8.7h43.756v5.923Z" transform="translate(96.6 49.004)" fill="#fff"/>
    <path id="Tracciato_3" data-name="Tracciato 3" d="M-95.8,13.091a22.293,22.293,0,0,0,3.248,5.923h38.979V12.9H-95.8Z" transform="translate(97.329 52.829)" fill="#fff"/>
    <path id="Tracciato_4" data-name="Tracciato 4" d="M-56.122,17.4H-93a23.773,23.773,0,0,0,17.388,7.261h19.681V17.4Z" transform="translate(99.879 56.928)" fill="#fff"/>
    <path id="Tracciato_5" data-name="Tracciato 5" d="M-69.2-21.5V5.059l22.356,28.661h25.6a26.392,26.392,0,0,0-4.013-11.465L-50.857-10.8A25.087,25.087,0,0,0-69.2-21.5" transform="translate(121.555 21.5)" fill="#fff"/>
    <path id="Tracciato_6" data-name="Tracciato 6" d="M-23.908,14.623A21.019,21.019,0,0,0-23.144,8.7H-66.9v5.923Z" transform="translate(123.649 49.004)" fill="#fff"/>
    <path id="Tracciato_7" data-name="Tracciato 7" d="M-24.672,13.091a22.289,22.289,0,0,1-3.248,5.923H-66.9V12.9h42.228Z" transform="translate(123.649 52.829)" fill="#fff"/>
    <path id="Tracciato_8" data-name="Tracciato 8" d="M-66.809,17.4h36.878a23.773,23.773,0,0,1-17.388,7.261H-67V17.4Z" transform="translate(123.558 56.928)" fill="#fff"/>
  </g>
  <path id="Tracciato_9" data-name="Tracciato 9" d="M-37.6,32.584V8.7h19.49v5.541H-29.766v3.439h9.745v5.541h-9.745v3.821h12.038v5.541Z" transform="translate(150.334 49.005)" fill="#fff"/>
  <path id="Tracciato_10" data-name="Tracciato 10" d="M-9.341,21.693l-.382-5.35V8.7h7.452V32.584H-9.532l-8.6-12.993.382,5.35v7.643H-25.2V8.7h7.261Z" transform="translate(161.627 49.005)" fill="#fff"/>
  <path id="Tracciato_11" data-name="Tracciato 11" d="M12.775,32.858H7.808l-.382-2.293C6.088,32.093,3.986,33.431.165,33.431-5.95,33.431-11.3,29.418-11.3,21.2c0-7.643,4.777-12.8,12.42-12.8,5.732,0,10.318,3.057,11.273,8.789H4.941A3.926,3.926,0,0,0,.929,14.132c-3.057,0-4.586,2.866-4.586,7.07,0,3.439,1.146,6.5,4.968,6.5,1.529,0,3.63-1.146,4.013-2.675H1.884V19.865h10.7V32.858Z" transform="translate(174.287 48.732)" fill="#fff"/>
  <path id="Tracciato_1556" data-name="Tracciato 1556" d="M21.8,15.5a5.408,5.408,0,0,0,2.147-.39V12.232H23.8c-2.2.488-2.683-.634-2.683-2.683v-12c0-6-3.952-8-9.318-8-6.684,0-9.9,3.659-10.05,8.538H5.554c.146-3.805,2.2-5.562,6.293-5.562,3.61,0,5.659,1.61,5.659,4.44,0,2.732-2.488,3.074-6.049,3.61C5.163,1.548.48,2.767.48,8.719c0,4.781,3.757,7.025,8.538,7.025a10.135,10.135,0,0,0,8.391-4h.049C17.848,14.33,19.214,15.5,21.8,15.5ZM9.9,12.72c-2.586,0-5.22-.732-5.22-4.1,0-3.708,3.171-4.391,7.123-5.123a18.147,18.147,0,0,0,5.757-1.854V5.938C17.555,8.866,15.165,12.72,9.9,12.72ZM36.923,23.648C43.607,23.648,48,20.525,48,13.89V-9.966H44.046v3.22h-.1a8.728,8.728,0,0,0-7.708-3.805c-5.854,0-10.782,4.586-10.782,12.44,0,7.269,4.488,12.489,11.026,12.489,3.61,0,5.61-1.512,7.464-3.9h.1v3.561c0,4.391-2.586,6.489-7.22,6.489-3.9,0-6.537-1.073-6.928-3.854H26.239C26.678,21.013,30.386,23.648,36.923,23.648Zm-.244-12.587c-4.683,0-7.172-3.61-7.172-9.123,0-5.464,2.391-9.172,7.123-9.172,5.366,0,7.708,3.415,7.708,8.928C44.338,7.012,42.485,11.061,36.679,11.061Zm27.466,4.879c5.708,0,9.66-3.074,10.83-8.489H71.122c-.878,3.415-3.317,5.171-6.976,5.171-5.074,0-7.855-3.9-8.147-9.025H75.513c0-8.342-4.049-14.2-11.611-14.2-7.172,0-11.953,5.952-11.953,13.27S56.437,15.939,64.145,15.939ZM63.9-7.478c4.537,0,7.123,3.074,7.367,8.1H56.1C56.681-3.965,59.218-7.478,63.9-7.478Z" transform="translate(190.957 67.68)" fill="#fff"/>
</svg> -->
<!-- viewBox="0 0 1110 350" -->

<svg id="Layer_2" data-name="Layer 2" xmlns="http://www.w3.org/2000/svg" viewBox="40 0 1110 350">
  <defs>
    <style>
      .cls-1 {
        stroke-width: 0px;
      }
    </style>
  </defs>
  <g>
    <g>
      <path class="cls-1" d="M176.47,266.99v16.65H46.5c-3-5.15-5.35-10.73-7.52-16.63l137.48-.02Z"/>
      <path class="cls-1" d="M176.47,299.45v15.22c0,.78-.63,1.42-1.42,1.42h-71.81c-14.44,0-30.84-5.03-43.76-16.64,0,0,116.99,0,116.99,0Z"/>
      <path class="cls-1" d="M192.17,35.33v98.14c0,.6-.19,1.18-.54,1.67l-60.08,82.46c-.53.73-1.39,1.17-2.29,1.17H35.58c-.93,0-1.63-.89-1.37-1.79,2.2-7.86,5.85-15.12,10.63-21.49L149.08,57.62c14.89-18.45,34.03-22.61,41.48-23.7.85-.13,1.61.54,1.61,1.4Z"/>
      <path class="cls-1" d="M176.47,235.41v15.79H33.96c-.04-.13-1.97-5.32-2.15-15.19-.01-.8.62-1.45,1.42-1.45h142.39c.47,0,.85.38.85.85Z"/>
    </g>
    <g>
      <path class="cls-1" d="M362.11,267.01c-2.17,5.9-4.52,11.48-7.52,16.63h-129.96v-16.65s137.48.02,137.48.02Z"/>
      <path class="cls-1" d="M224.63,299.45v15.22c0,.78.63,1.42,1.42,1.42h71.81c14.44,0,30.84-5.03,43.76-16.64,0,0-116.99,0-116.99,0Z"/>
      <path class="cls-1" d="M208.93,35.33v98.14c0,.6.19,1.18.54,1.67l60.08,82.46c.53.73,1.39,1.17,2.29,1.17h93.67c.93,0,1.63-.89,1.37-1.79-2.2-7.86-5.85-15.12-10.63-21.49L252.02,57.62c-14.89-18.45-34.03-22.61-41.48-23.7-.85-.13-1.61.54-1.61,1.4Z"/>
      <path class="cls-1" d="M224.63,235.98v15.22s142.51,0,142.51,0c.04-.13,1.97-5.32,2.15-15.19.01-.8-.62-1.45-1.42-1.45h-141.82c-.78,0-1.42.63-1.42,1.42Z"/>
    </g>
  </g>
  <g>
    <path class="cls-1" d="M434.57,255.78c-7.77-4.63-13.78-10.85-18.04-18.69-4.25-7.83-6.38-16.43-6.38-25.81s2.06-18.16,6.2-25.99c4.13-7.83,9.93-14.03,17.39-18.59,7.46-4.56,16.06-6.84,25.81-6.84s18.78,2.16,25.99,6.47c7.21,4.32,12.7,10.3,16.47,17.95,3.76,7.65,5.64,16.41,5.64,26.27,0,3.46-.25,6.85-.74,10.18h-66.6c1.6,5.18,4.32,9.16,8.14,11.93,3.82,2.78,8.51,4.16,14.06,4.16,4.56,0,8.57-.55,12.03-1.67,3.45-1.11,6.97-3.02,10.54-5.73l14.62,19.42c-5.55,4.81-11.38,8.33-17.48,10.55-6.11,2.22-13.11,3.33-21,3.33-9.99,0-18.87-2.31-26.64-6.94ZM479.71,200.74c-1.23-5.3-3.55-9.31-6.94-12.03-3.39-2.71-7.62-4.07-12.67-4.07s-9.47,1.39-12.86,4.16c-3.39,2.77-5.77,6.75-7.12,11.93h39.59Z"/>
    <path class="cls-1" d="M524.11,161.89h18.5l8.33,11.29c8.63-9,19.55-13.51,32.75-13.51,11.84,0,21.3,3.82,28.4,11.47,7.09,7.65,10.64,18.13,10.64,31.45v57.35h-30.71v-51.99c0-6.41-1.54-11.38-4.62-14.89-3.08-3.52-7.28-5.27-12.58-5.27-5.67,0-10.42,1.88-14.25,5.64-3.82,3.76-5.74,8.17-5.74,13.23v53.28h-30.71v-98.05Z"/>
    <path class="cls-1" d="M711.15,172.44l7.96-10.55h18.5v82.7c0,9.25-2.13,17.67-6.38,25.25s-10.48,13.57-18.69,17.95c-8.2,4.38-17.98,6.57-29.32,6.57-15.66,0-29.48-4.62-41.44-13.88l15.91-21.28c4.07,3.33,8.08,5.67,12.03,7.03,3.95,1.36,8.26,2.04,12.95,2.04,8.51,0,14.77-1.97,18.78-5.92,4.01-3.95,6.01-9.81,6.01-17.58-7.28,6.04-15.97,9.06-26.09,9.06-8.63,0-16.37-2.04-23.22-6.1-6.85-4.07-12.21-9.65-16.1-16.74-3.88-7.09-5.83-15.14-5.83-24.14s1.94-16.93,5.83-24.14,9.25-12.86,16.1-16.93c6.84-4.07,14.58-6.11,23.22-6.11,11.72,0,21.65,4.25,29.79,12.77ZM672.57,192.6c-3.88,3.82-5.83,8.7-5.83,14.62s1.94,11.16,5.83,14.99c3.89,3.83,8.91,5.74,15.08,5.74s11.19-1.91,15.08-5.74c3.88-3.82,5.83-8.76,5.83-14.8s-1.94-10.82-5.83-14.71c-3.89-3.88-8.91-5.83-15.08-5.83s-11.19,1.91-15.08,5.74Z"/>
    <path class="cls-1" d="M779.6,255.5c-7.03-4.32-12.55-10.27-16.56-17.85-4.01-7.58-6.01-15.94-6.01-25.07s2.04-17.48,6.11-25.07c4.07-7.59,9.59-13.6,16.56-18.04,6.97-4.44,14.71-6.66,23.22-6.66s15.45,2.04,21.92,6.1c6.48,4.07,11.68,9.56,15.63,16.47l-.37-2.22,3.88-18.32h5.92v95.09h-5.92l-3.88-17.58.37-2.96c-3.82,6.91-9,12.39-15.54,16.46-6.54,4.07-13.88,6.11-22.02,6.11s-16.28-2.16-23.31-6.48ZM822.61,247.83c5.74-3.51,10.27-8.39,13.6-14.62,3.33-6.23,5-13.1,5-20.63s-1.67-14.55-5-20.72c-3.33-6.17-7.86-11.04-13.6-14.62-5.74-3.58-12.12-5.37-19.15-5.37s-13.38,1.79-19.06,5.37c-5.67,3.58-10.15,8.45-13.41,14.62-3.27,6.17-4.9,13.08-4.9,20.72s1.63,14.55,4.9,20.72c3.27,6.17,7.74,11.01,13.41,14.52,5.67,3.52,12.03,5.27,19.06,5.27s13.41-1.76,19.15-5.27Z"/>
    <path class="cls-1" d="M941.1,168.65c6.41,3.89,11.59,9.16,15.54,15.82l3.7-19.61h6.11v81.96c0,14.55-4.01,26.24-12.03,35.06-8.02,8.82-19.36,13.23-34.04,13.23s-27.07-4.44-38.67-13.32l5.55-7.21c9.99,7.77,20.97,11.66,32.93,11.66s21.3-3.51,27.66-10.54c6.35-7.03,9.53-16.77,9.53-29.23v-10.73c-3.82,6.78-9.04,12.18-15.63,16.19-6.6,4.01-14.03,6.01-22.29,6.01s-16.46-2.06-23.5-6.2c-7.03-4.13-12.52-9.83-16.47-17.11-3.95-7.28-5.92-15.36-5.92-24.24s2-16.4,6.01-23.68c4.01-7.28,9.5-13.07,16.46-17.39,6.97-4.32,14.77-6.47,23.4-6.47,8.02,0,15.23,1.94,21.65,5.83ZM900.77,176.97c-5.67,3.39-10.11,8.02-13.32,13.88-3.21,5.86-4.81,12.3-4.81,19.33,0,7.4,1.57,14.03,4.72,19.89,3.14,5.86,7.55,10.45,13.23,13.78,5.67,3.33,12.15,5,19.43,5s13.41-1.69,19.15-5.09c5.74-3.39,10.27-7.98,13.6-13.78,3.33-5.8,5-12.21,5-19.24s-1.67-13.69-5-19.61c-3.33-5.92-7.86-10.61-13.6-14.06-5.74-3.45-12.12-5.18-19.15-5.18s-13.57,1.7-19.24,5.09Z"/>
    <path class="cls-1" d="M1012.88,255.6c-7.16-4.38-12.74-10.33-16.74-17.85-4.01-7.52-6.01-15.85-6.01-24.98s1.85-17.7,5.55-25.35c3.7-7.65,8.91-13.66,15.63-18.04,6.72-4.38,14.4-6.57,23.03-6.57s16.8,2.16,23.4,6.47c6.6,4.32,11.66,10.24,15.17,17.76,3.52,7.52,5.27,16.03,5.27,25.53,0,1.48-.06,2.65-.19,3.52h-78.63c.49,7.28,2.37,13.75,5.64,19.42,3.27,5.67,7.68,10.08,13.23,13.23,5.55,3.14,11.84,4.72,18.87,4.72,6.29,0,11.93-.92,16.93-2.77,5-1.85,9.83-4.62,14.52-8.33l4.81,6.47c-5.18,4.44-10.67,7.77-16.47,9.99-5.8,2.22-12.39,3.33-19.79,3.33-9,0-17.08-2.19-24.24-6.57ZM1068.94,207.59c-.86-10.85-4.29-19.55-10.27-26.08-5.98-6.54-14.03-9.81-24.14-9.81s-17.95,3.33-24.24,9.99c-6.29,6.66-9.93,15.29-10.92,25.9h69.56Z"/>
  </g>
</svg>