<svg xmlns="http://www.w3.org/2000/svg" width="17.5" height="20" viewBox="0 0 17.5 20">
  <path id="menu-icon-notifiche" d="M8.414-3.348c-.755-.811-2.167-2.031-2.167-6.027a6.169,6.169,0,0,0-5-6.061v-.814A1.25,1.25,0,0,0,0-17.5a1.25,1.25,0,0,0-1.249,1.25v.814a6.169,6.169,0,0,0-5,6.061c0,4-1.412,5.216-2.167,6.027A1.221,1.221,0,0,0-8.75-2.5,1.251,1.251,0,0,0-7.5-1.25H7.5A1.251,1.251,0,0,0,8.75-2.5,1.22,1.22,0,0,0,8.414-3.348Zm-14.526.223c.829-1.093,1.735-2.9,1.739-6.227,0-.008,0-.015,0-.023A4.375,4.375,0,0,1,0-13.75,4.375,4.375,0,0,1,4.375-9.375c0,.008,0,.015,0,.023,0,3.324.911,5.135,1.739,6.227ZM0,2.5A2.5,2.5,0,0,0,2.5,0h-5A2.5,2.5,0,0,0,0,2.5Z" transform="translate(8.75 17.5)" fill="#fff"/>
</svg>
