<svg xmlns="http://www.w3.org/2000/svg" width="17.5" height="20" viewBox="0 0 17.5 20">
  <path id="menu-icon-calendar" d="M-2.969-6.25A.47.47,0,0,0-2.5-6.719V-8.281a.47.47,0,0,0-.469-.469H-4.531A.47.47,0,0,0-5-8.281v1.563a.47.47,0,0,0,.469.469ZM1.25-6.719V-8.281A.47.47,0,0,0,.781-8.75H-.781a.47.47,0,0,0-.469.469v1.563a.47.47,0,0,0,.469.469H.781A.47.47,0,0,0,1.25-6.719Zm3.75,0V-8.281a.47.47,0,0,0-.469-.469H2.969a.47.47,0,0,0-.469.469v1.563a.47.47,0,0,0,.469.469H4.531A.47.47,0,0,0,5-6.719ZM1.25-2.969V-4.531A.47.47,0,0,0,.781-5H-.781a.47.47,0,0,0-.469.469v1.563A.47.47,0,0,0-.781-2.5H.781A.47.47,0,0,0,1.25-2.969Zm-3.75,0V-4.531A.47.47,0,0,0-2.969-5H-4.531A.47.47,0,0,0-5-4.531v1.563a.47.47,0,0,0,.469.469h1.563A.47.47,0,0,0-2.5-2.969Zm7.5,0V-4.531A.47.47,0,0,0,4.531-5H2.969a.47.47,0,0,0-.469.469v1.563a.47.47,0,0,0,.469.469H4.531A.47.47,0,0,0,5-2.969ZM8.75-13.125A1.875,1.875,0,0,0,6.875-15H5v-2.031a.47.47,0,0,0-.469-.469H2.969a.47.47,0,0,0-.469.469V-15h-5v-2.031a.47.47,0,0,0-.469-.469H-4.531A.47.47,0,0,0-5-17.031V-15H-6.875A1.875,1.875,0,0,0-8.75-13.125V.625A1.875,1.875,0,0,0-6.875,2.5H6.875A1.875,1.875,0,0,0,8.75.625ZM6.875.391a.235.235,0,0,1-.234.234H-6.641A.235.235,0,0,1-6.875.391V-11.25H6.875Z" transform="translate(8.75 17.5)" fill="#fff"/>
</svg>
