<svg xmlns="http://www.w3.org/2000/svg" viewBox="0 0 91.16 119.42"><defs><style>.cls-1{fill:currentColor;}.cls-2{fill:currentColor;}</style></defs><g id="Livello_2" data-name="Livello 2"><g id="Livello_1-2" data-name="Livello 1"><path class="cls-1" d="M75,65.25a4.42,4.42,0,0,1-1.35,3.27L50,92.2a4.61,4.61,0,0,1-3.3,1.34A4.44,4.44,0,0,1,43.4,92.2L19.76,68.52a4.31,4.31,0,0,1-1.38-3.27A4.5,4.5,0,0,1,19.76,62l2.69-2.72a4.62,4.62,0,0,1,3.3-1.35A4.45,4.45,0,0,1,29,59.23L39.7,69.9V44.34a4.71,4.71,0,0,1,4.64-4.65H49a4.71,4.71,0,0,1,4.65,4.65V69.9L64.32,59.23a4.42,4.42,0,0,1,3.27-1.35,4.64,4.64,0,0,1,3.3,1.35L73.61,62A4.64,4.64,0,0,1,75,65.25Z"/><path class="cls-2" d="M87.9,3.09h0a5.51,5.51,0,0,0-6,.91l-7.76,6.87L63.59,1.43a5.57,5.57,0,0,0-7.46,0L45.58,10.86,35,1.43a5.57,5.57,0,0,0-7.46,0L17,10.87,9.24,4A5.55,5.55,0,0,0,0,8.19V111.24a5.57,5.57,0,0,0,9.26,4.19L17,108.55,27.58,118A5.58,5.58,0,0,0,35,118l10.55-9.44L56.13,118a5.59,5.59,0,0,0,7.46,0l10.56-9.45,7.77,6.87a5.55,5.55,0,0,0,9.24-4.18V8.19A5.49,5.49,0,0,0,87.9,3.09ZM77.85,104.36a5.59,5.59,0,0,0-7.43,0l-10.56,9.45-10.55-9.44a5.59,5.59,0,0,0-7.46,0L31.3,113.83l-10.56-9.45a5.56,5.56,0,0,0-7.41,0l-7.74,6.87V96.33l0-88.14,7.75,6.87a5.57,5.57,0,0,0,7.42,0L31.3,5.59,41.85,15a5.59,5.59,0,0,0,7.46,0L59.86,5.59,70.43,15a5.55,5.55,0,0,0,7.4,0l7.74-6.87V79l0,32.21Z"/></g></g></svg>
